<svg width="48" height="48" viewBox="0 0 48 48" fill="none" xmlns="http://www.w3.org/2000/svg">
  <g transform="translate(1 2)">
     <path d="M24.64 8.64C22.97 6.97 20.76 6 18.4 6C14.08 6 10.4 9.22 9.8 13.42C7.44 14.5 5.57 16.43 4.5 18.8C0.3 19.4 6 23.08 6 27.4C6 29.76 6.97 31.97 8.64 33.64L24.64 8.64ZM30.46 12.5C31.54 14.87 33.47 16.74 35.84 17.82C40.04 17.22 43.22 13.54 43.22 9.22C43.22 6.86 42.25 4.65 40.58 2.98L24.58 27.98C26.25 29.65 28.46 30.62 30.82 30.62C35.14 30.62 38.82 27.4 39.42 23.2C41.78 22.12 43.65 20.19 44.72 17.82C48.92 17.22 43.22 13.54 43.22 9.22C43.22 6.86 42.25 4.65 40.58 2.98L30.46 12.5Z" fill="#16a34a"/>
     <path d="M3 42C3 42 15 36 24 20" stroke="#16a34a" stroke-width="3" stroke-linecap="round" stroke-linejoin="round"/>
  </g>
</svg>